# Blender v2.69 (sub 0) OBJ File: ''
# www.blender.org
mtllib one.mtl
o Text
v 0.202000 0.000000 0.020000
v 0.202000 0.682000 0.020000
v 0.300000 0.682000 0.020000
v 0.300000 0.000000 0.020000
v 0.202000 0.000000 -0.020000
v 0.202000 0.682000 -0.020000
v 0.300000 0.682000 -0.020000
v 0.300000 0.000000 -0.020000
v 0.202000 0.000000 -0.020000
v 0.182000 -0.020000 0.000000
v 0.202000 0.682000 -0.020000
v 0.182000 0.702000 0.000000
v 0.300000 0.682000 -0.020000
v 0.320000 0.702000 0.000000
v 0.300000 0.000000 -0.020000
v 0.320000 -0.020000 0.000000
v 0.182000 -0.020000 0.000000
v 0.202000 0.000000 0.020000
v 0.182000 0.702000 0.000000
v 0.202000 0.682000 0.020000
v 0.320000 0.702000 0.000000
v 0.300000 0.682000 0.020000
v 0.320000 -0.020000 0.000000
v 0.300000 0.000000 0.020000
vt 0.000000 0.000000
vt 0.666667 0.000000
vt 0.333333 0.000000
vt 1.000000 0.000000
vt 0.000000 1.000000
vt 0.333333 1.000000
vt 0.666667 1.000000
vt 1.000000 1.000000
vn 0.000000 0.000000 1.000000
vn 0.000000 0.000000 -1.000000
vn -0.408248 -0.408248 -0.816497
vn -0.408248 0.408249 -0.816496
vn 0.408248 0.408247 -0.816497
vn 0.408248 -0.408248 -0.816497
vn -0.408248 -0.408248 0.816497
vn -0.408248 0.408249 0.816496
vn 0.408248 0.408248 0.816497
vn -0.408249 0.408248 0.816496
vn 0.408248 -0.408248 0.816497
vn 0.408248 0.408247 0.816497
usemtl Material.001
s off
f 1/1/1 3/2/1 2/3/1
f 1/1/1 4/4/1 3/2/1
f 7/2/2 5/1/2 6/3/2
f 8/4/2 5/1/2 7/2/2
s 1
f 10/5/3 12/6/4 9/1/3
f 12/6/4 14/7/5 11/3/4
f 14/7/5 16/8/6 13/2/5
f 16/8/6 10/5/3 15/4/6
f 18/5/7 20/6/8 17/1/7
f 20/6/8 22/7/9 19/3/10
f 22/7/9 24/8/11 21/2/12
f 24/8/11 18/5/7 23/4/11
f 12/6/4 11/3/4 9/1/3
f 14/7/5 13/2/5 11/3/4
f 16/8/6 15/4/6 13/2/5
f 10/5/3 9/1/3 15/4/6
f 20/6/8 19/3/10 17/1/7
f 22/7/9 21/2/12 19/3/10
f 24/8/11 23/4/11 21/2/12
f 18/5/7 17/1/7 23/4/11
