# Blender v2.69 (sub 0) OBJ File: ''
# www.blender.org
mtllib seven.mtl
o Text
v 0.094000 0.029000 0.020000
v 0.344000 0.589000 0.020000
v 0.049000 0.589000 0.020000
v 0.049000 0.682000 0.020000
v 0.490000 0.682000 0.020000
v 0.181000 -0.009000 0.020000
v 0.094000 0.029000 -0.020000
v 0.344000 0.589000 -0.020000
v 0.049000 0.589000 -0.020000
v 0.049000 0.682000 -0.020000
v 0.490000 0.682000 -0.020000
v 0.181000 -0.009000 -0.020000
v 0.094000 0.029000 -0.020000
v 0.067518 0.018742 0.000000
v 0.344000 0.589000 -0.020000
v 0.313169 0.569000 0.000000
v 0.049000 0.589000 -0.020000
v 0.029000 0.569000 0.000000
v 0.049000 0.682000 -0.020000
v 0.029000 0.702000 0.000000
v 0.490000 0.682000 -0.020000
v 0.520852 0.702000 0.000000
v 0.181000 -0.009000 -0.020000
v 0.191164 -0.035264 0.000000
v 0.067518 0.018742 0.000000
v 0.094000 0.029000 0.020000
v 0.313169 0.569000 0.000000
v 0.344000 0.589000 0.020000
v 0.029000 0.569000 0.000000
v 0.049000 0.589000 0.020000
v 0.029000 0.702000 0.000000
v 0.049000 0.682000 0.020000
v 0.520852 0.702000 0.000000
v 0.490000 0.682000 0.020000
v 0.191164 -0.035264 0.000000
v 0.181000 -0.009000 0.020000
vt 0.400000 0.000000
vt 0.800000 0.000000
vt 0.600000 0.000000
vt 0.200000 0.000000
vt 1.000000 0.000000
vt 0.000000 0.000000
vt 0.000000 1.000000
vt 0.200000 1.000000
vt 0.400000 1.000000
vt 0.600000 1.000000
vt 0.800000 1.000000
vt 1.000000 1.000000
vn 0.000000 0.000000 1.000000
vn 0.000000 0.000000 -1.000000
vn -0.536918 -0.207975 -0.817598
vn -0.401028 -0.260146 -0.878351
vn -0.401028 -0.260145 -0.878351
vn -0.408248 -0.408247 -0.816497
vn -0.408249 0.408249 -0.816496
vn 0.400960 0.259923 -0.878448
vn 0.208972 -0.539992 -0.815316
vn -0.536918 -0.207976 0.817598
vn -0.401028 -0.260145 0.878351
vn -0.536918 -0.207975 0.817598
vn -0.408248 -0.408248 0.816497
vn -0.408248 0.408249 0.816496
vn 0.400959 0.259924 0.878448
vn 0.400959 0.259923 0.878448
vn 0.208972 -0.539992 0.815316
vn -0.536918 -0.207976 -0.817598
vn 0.400959 0.259924 -0.878448
vn -0.401028 -0.260146 0.878351
vn -0.408249 0.408249 0.816496
usemtl Material.001
s off
f 3/1/1 5/2/1 4/3/1
f 3/1/1 2/4/1 5/2/1
f 2/4/1 6/5/1 5/2/1
f 1/6/1 6/5/1 2/4/1
f 11/2/2 9/1/2 10/3/2
f 8/4/2 9/1/2 11/2/2
f 12/5/2 8/4/2 11/2/2
f 12/5/2 7/6/2 8/4/2
s 1
f 14/7/3 16/8/4 15/4/5
f 16/8/4 18/9/6 15/4/5
f 18/9/6 20/10/7 17/1/6
f 20/10/7 22/11/8 19/3/7
f 22/11/8 24/12/9 23/5/9
f 24/12/9 14/7/3 23/5/9
f 26/7/10 28/8/11 25/6/12
f 28/8/11 30/9/13 29/1/13
f 30/9/13 32/10/14 29/1/13
f 32/10/14 34/11/15 33/2/16
f 34/11/15 36/12/17 33/2/16
f 36/12/17 26/7/10 25/6/12
f 13/6/18 14/7/3 15/4/5
f 18/9/6 17/1/6 15/4/5
f 20/10/7 19/3/7 17/1/6
f 22/11/8 21/2/19 19/3/7
f 21/2/19 22/11/8 23/5/9
f 14/7/3 13/6/18 23/5/9
f 28/8/11 27/4/20 25/6/12
f 27/4/20 28/8/11 29/1/13
f 32/10/14 31/3/21 29/1/13
f 31/3/21 32/10/14 33/2/16
f 36/12/17 35/5/17 33/2/16
f 35/5/17 36/12/17 25/6/12
