# Blender v2.69 (sub 0) OBJ File: ''
# www.blender.org
mtllib texturized.mtl
o pCylinder1
v 3.307183 0.427196 -3.328125
v 3.244039 0.427196 -3.452052
v 3.244039 8.134233 -3.452051
v 3.307183 8.134233 -3.328124
v 3.145690 0.427196 -3.550401
v 3.145690 8.134233 -3.550400
v 3.021762 0.427196 -3.613545
v 3.021762 8.134233 -3.613544
v 2.884388 0.427196 -3.635303
v 2.884388 8.134233 -3.635302
v 2.747014 0.427196 -3.613545
v 2.747014 8.134233 -3.613544
v 2.623087 0.427196 -3.550401
v 2.623087 8.134233 -3.550400
v 2.524738 0.427196 -3.452052
v 2.524738 8.134233 -3.452051
v 2.461594 0.427196 -3.328125
v 2.461594 8.134233 -3.328124
v 2.439836 0.427196 -3.190751
v 2.439836 8.134233 -3.190750
v 2.461594 0.427196 -3.053377
v 2.461594 8.134233 -3.053375
v 2.524738 0.427195 -2.929450
v 2.524738 8.134233 -2.929449
v 2.623087 0.427195 -2.831100
v 2.623087 8.134232 -2.831099
v 2.747014 0.427195 -2.767956
v 2.747014 8.134232 -2.767955
v 2.884388 0.427195 -2.746199
v 2.884388 8.134232 -2.746197
v 3.021762 0.427195 -2.767957
v 3.021762 8.134232 -2.767956
v 3.145689 0.427195 -2.831100
v 3.145689 8.134232 -2.831099
v 3.244038 0.427195 -2.929450
v 3.244038 8.134233 -2.929449
v 3.307182 0.427196 -3.053377
v 3.307182 8.134233 -3.053375
v 3.328940 0.427196 -3.190751
v 3.328940 8.134233 -3.190750
v 2.884388 0.427196 -3.190751
v 2.884388 9.084422 -3.190750
vt 0.983065 0.131970
vt 0.983150 0.137641
vt 0.595133 0.133083
vt 0.983234 0.143312
vt 0.595217 0.138753
vt 0.983318 0.148983
vt 0.595302 0.144424
vt 0.983402 0.154654
vt 0.595386 0.150095
vt 0.983486 0.160324
vt 0.595470 0.155766
vt 0.983570 0.165995
vt 0.595554 0.161437
vt 0.983654 0.171666
vt 0.595638 0.167108
vt 0.983738 0.177337
vt 0.595722 0.172779
vt 0.983823 0.183008
vt 0.595806 0.178450
vt 0.983907 0.188679
vt 0.595891 0.184121
vt 0.983974 0.193194
vt 0.595975 0.189792
vt 0.984058 0.198865
vt 0.596042 0.194307
vt 0.984159 0.205692
vt 0.596126 0.199978
vt 0.984244 0.211363
vt 0.596227 0.206804
vt 0.984328 0.217034
vt 0.596311 0.212475
vt 0.984412 0.222705
vt 0.596395 0.218146
vt 0.984496 0.228375
vt 0.596480 0.223817
vt 0.984580 0.234046
vt 0.596564 0.229488
vt 0.984664 0.239717
vt 0.596648 0.235159
vt 0.984748 0.245388
vt 0.596732 0.240830
vt 0.993520 0.212858
vt 0.991748 0.218101
vt 0.989993 0.183504
vt 0.994921 0.204743
vt 0.995815 0.194550
vt 0.996114 0.183276
vt 0.995790 0.172026
vt 0.994872 0.161900
vt 0.993452 0.153890
vt 0.991669 0.148780
vt 0.989696 0.147069
vt 0.987728 0.148926
vt 0.985956 0.154169
vt 0.984555 0.162285
vt 0.983661 0.172478
vt 0.983361 0.183752
vt 0.983686 0.195002
vt 0.984604 0.205128
vt 0.986024 0.213138
vt 0.987807 0.218248
vt 0.989780 0.219958
vt 0.587224 0.244895
vt 0.585985 0.237201
vt 0.588743 0.192589
vt 0.584998 0.225142
vt 0.584361 0.209898
vt 0.584135 0.192961
vt 0.584343 0.175988
vt 0.584964 0.160642
vt 0.585938 0.148425
vt 0.587169 0.140532
vt 0.588537 0.137736
vt 0.589908 0.140311
vt 0.591147 0.148004
vt 0.592134 0.160063
vt 0.592771 0.175308
vt 0.592997 0.192245
vt 0.592789 0.209217
vt 0.592168 0.224563
vt 0.591194 0.236781
vt 0.589963 0.244674
vt 0.588595 0.247470
vt 0.596816 0.246501
vn 0.951058 0.000000 -0.309013
vn 0.809017 0.000000 -0.587785
vn 0.951057 0.000000 -0.309014
vn 0.587784 0.000000 -0.809018
vn 0.809016 0.000000 -0.587786
vn 0.309016 0.000000 -0.951057
vn 0.587783 0.000000 -0.809019
vn 0.000000 0.000000 -1.000000
vn -0.309017 0.000000 -0.951056
vn -0.587784 0.000000 -0.809018
vn -0.809016 0.000000 -0.587786
vn -0.587786 0.000000 -0.809017
vn -0.951056 0.000000 -0.309018
vn -0.809018 0.000000 -0.587784
vn -1.000000 -0.000000 -0.000000
vn -0.951056 0.000000 -0.309017
vn -0.951057 -0.000000 0.309017
vn -0.809018 -0.000000 0.587783
vn -0.951056 -0.000000 0.309018
vn -0.587787 -0.000000 0.809016
vn -0.809019 -0.000000 0.587782
vn -0.309014 -0.000000 0.951057
vn -0.587788 -0.000000 0.809015
vn 0.000003 -0.000000 1.000000
vn -0.309014 -0.000000 0.951058
vn 0.309014 -0.000000 0.951057
vn 0.000004 -0.000000 1.000000
vn 0.587784 -0.000000 0.809018
vn 0.809018 -0.000000 0.587783
vn 0.951056 -0.000000 0.309017
vn 0.809019 -0.000000 0.587783
vn 1.000000 0.000000 0.000004
vn 0.951057 -0.000000 0.309016
vn 1.000000 0.000000 0.000003
vn 0.000000 -1.000000 0.000000
vn 0.000000 -0.999969 0.000000
vn 0.861439 0.423771 -0.279895
vn 0.732783 0.423771 -0.532397
vn 0.000000 1.000000 0.000000
vn 0.532397 0.423770 -0.732784
vn 0.279898 0.423769 -0.861439
vn 0.000000 0.423769 -0.905770
vn -0.279899 0.423770 -0.861438
vn -0.532399 0.423770 -0.732782
vn -0.732783 0.423770 -0.532398
vn -0.861438 0.423770 -0.279898
vn -0.905770 0.423770 -0.000000
vn -0.861439 0.423770 0.279898
vn -0.732785 0.423769 0.532397
vn -0.532399 0.423770 0.732783
vn -0.279897 0.423770 0.861439
vn 0.000003 0.423769 0.905770
vn 0.279898 0.423769 0.861439
vn 0.532397 0.423770 0.732784
vn 0.732784 0.423769 0.532398
vn 0.861439 0.423769 0.279897
vn 0.905770 0.423770 0.000001
usemtl initialShadingGroup
s 1
f 1/1/1 2/2/2 4/3/3
f 2/2/2 5/4/4 3/5/5
f 5/4/4 7/6/6 6/7/7
f 7/6/6 9/8/8 8/9/6
f 9/8/8 11/10/9 10/11/8
f 11/10/9 13/12/10 12/13/9
f 13/12/10 15/14/11 14/15/12
f 15/14/11 17/16/13 16/17/14
f 17/16/13 19/18/15 18/19/16
f 19/18/15 21/20/17 20/21/15
f 21/20/17 23/22/18 22/23/19
f 23/22/18 25/24/20 24/25/21
f 25/24/20 27/26/22 26/27/23
f 27/26/22 29/28/24 28/29/25
f 29/28/24 31/30/26 30/31/27
f 31/30/26 33/32/28 32/33/26
f 33/32/28 35/34/29 34/35/28
f 35/34/29 37/36/30 36/37/31
f 37/36/30 39/38/32 38/39/33
f 39/38/32 1/40/1 40/41/34
f 2/42/35 1/43/35 41/44/36
f 5/45/35 2/42/35 41/44/36
f 7/46/35 5/45/35 41/44/36
f 9/47/35 7/46/35 41/44/36
f 11/48/35 9/47/35 41/44/36
f 13/49/35 11/48/35 41/44/36
f 15/50/35 13/49/35 41/44/36
f 17/51/35 15/50/35 41/44/36
f 19/52/35 17/51/35 41/44/36
f 21/53/35 19/52/35 41/44/36
f 23/54/35 21/53/35 41/44/36
f 25/55/35 23/54/35 41/44/36
f 27/56/35 25/55/35 41/44/36
f 29/57/35 27/56/35 41/44/36
f 31/58/35 29/57/35 41/44/36
f 33/59/35 31/58/35 41/44/36
f 35/60/35 33/59/35 41/44/36
f 37/61/35 35/60/35 41/44/36
f 39/62/35 37/61/35 41/44/36
f 1/43/35 39/62/35 41/44/36
f 4/63/37 3/64/38 42/65/39
f 3/64/38 6/66/40 42/65/39
f 6/66/40 8/67/41 42/65/39
f 8/67/41 10/68/42 42/65/39
f 10/68/42 12/69/43 42/65/39
f 12/69/43 14/70/44 42/65/39
f 14/70/44 16/71/45 42/65/39
f 16/71/45 18/72/46 42/65/39
f 18/72/46 20/73/47 42/65/39
f 20/73/47 22/74/48 42/65/39
f 22/74/48 24/75/49 42/65/39
f 24/75/49 26/76/50 42/65/39
f 26/76/50 28/77/51 42/65/39
f 28/77/51 30/78/52 42/65/39
f 30/78/52 32/79/53 42/65/39
f 32/79/53 34/80/54 42/65/39
f 34/80/54 36/81/55 42/65/39
f 36/81/55 38/82/56 42/65/39
f 38/82/56 40/83/57 42/65/39
f 40/83/57 4/63/37 42/65/39
f 2/2/2 3/5/5 4/3/3
f 5/4/4 6/7/7 3/5/5
f 7/6/6 8/9/6 6/7/7
f 9/8/8 10/11/8 8/9/6
f 11/10/9 12/13/9 10/11/8
f 13/12/10 14/15/12 12/13/9
f 15/14/11 16/17/14 14/15/12
f 17/16/13 18/19/16 16/17/14
f 19/18/15 20/21/15 18/19/16
f 21/20/17 22/23/19 20/21/15
f 23/22/18 24/25/21 22/23/19
f 25/24/20 26/27/23 24/25/21
f 27/26/22 28/29/25 26/27/23
f 29/28/24 30/31/27 28/29/25
f 31/30/26 32/33/26 30/31/27
f 33/32/28 34/35/28 32/33/26
f 35/34/29 36/37/31 34/35/28
f 37/36/30 38/39/33 36/37/31
f 39/38/32 40/41/34 38/39/33
f 1/40/1 4/84/3 40/41/34
o group2
v -4.807357 9.463033 -0.020450
v -3.968135 9.463033 -0.020450
v -3.968135 9.495593 -0.020450
v -4.807357 9.495593 -0.020450
v -3.968135 9.495593 -0.991995
v -4.807357 9.495593 -0.991995
v -3.968135 9.463033 -0.991995
v -4.807357 9.463033 -0.991995
v 3.991626 9.463033 -0.020450
v 4.830849 9.463033 -0.020450
v 4.830849 9.495593 -0.020450
v 3.991626 9.495593 -0.020450
v 4.830849 9.495593 -0.991995
v 3.991626 9.495593 -0.991995
v 4.830849 9.463033 -0.991995
v 3.991626 9.463033 -0.991995
v -4.024245 9.462256 0.000450
v 4.034523 9.462256 0.000450
v 4.034523 11.216712 0.000450
v -4.024245 11.216712 0.000450
v 4.034523 11.216712 -0.027409
v -4.024245 11.216712 -0.027409
v 4.034523 9.462256 -0.027409
v -4.024245 9.462256 -0.027409
v -3.988339 9.970733 -0.183153
v 3.992361 9.968724 -0.179346
v 3.992688 10.349807 -0.664815
v -3.988012 10.351815 -0.668623
v -3.988419 10.352643 -0.666656
v 3.992281 10.356903 -0.666035
v 3.992769 9.490914 -0.993509
v -3.987931 9.486654 -0.994130
v -3.966956 0.000000 0.000000
v 3.994893 0.000000 0.000000
v 3.994893 9.497005 0.000002
v -3.966956 9.497005 0.000002
v -3.966956 9.497005 -0.991737
v 3.994893 9.497005 -0.991737
v 3.994893 0.000000 -0.991739
v -3.966956 0.000000 -0.991739
vt 0.345386 0.879704
vt 0.345386 0.836880
vt 0.347047 0.879704
vt 0.283020 0.819047
vt 0.325845 0.819047
vt 0.283020 0.868623
vt 0.304470 0.889894
vt 0.304470 0.847070
vt 0.306132 0.889894
vt 0.383310 0.868623
vt 0.340486 0.868623
vt 0.383310 0.819047
vt 0.377127 0.863528
vt 0.377127 0.813952
vt 0.378789 0.863528
vt 0.391284 0.873718
vt 0.391284 0.824142
vt 0.392945 0.873718
vt 0.251432 0.866966
vt 0.251432 0.824142
vt 0.253094 0.866966
vt 0.188050 0.824142
vt 0.230875 0.824142
vt 0.188050 0.873718
vt 0.281850 0.864419
vt 0.281850 0.821594
vt 0.283511 0.864419
vt 0.395824 0.806309
vt 0.438648 0.806309
vt 0.395824 0.855885
vt 0.259229 0.883909
vt 0.259229 0.834332
vt 0.260891 0.883909
vt 0.349813 0.863528
vt 0.349813 0.813952
vt 0.351474 0.863528
vt 0.603029 0.792666
vt 0.925970 0.792353
vt 0.602981 0.878146
vt -0.263326 0.751325
vt -0.263326 0.340099
vt -0.261905 0.751325
vt 0.605356 0.879089
vt 0.928283 0.875420
vt 0.605969 0.970636
vt -0.244261 0.804824
vt -0.244261 0.393599
vt -0.242839 0.804824
vt 0.379169 0.821595
vt 0.380590 0.821595
vt 0.379169 0.911121
vt 0.180542 0.801214
vt 0.181964 0.801214
vt 0.180542 0.890741
vt 0.136282 0.907328
vt 0.467181 0.896037
vt 0.177224 0.986269
vt 0.132110 0.798513
vt 0.474307 0.800932
vt 0.132006 0.900503
vt 0.605628 0.338568
vt 0.933865 0.338568
vt 0.605628 0.792931
vt 0.472989 0.799231
vt 0.128782 0.799022
vt 0.476653 0.333858
vt 0.131987 0.330854
vt 0.472192 0.199307
vt 0.012843 0.331193
vt 0.009098 0.800509
vt 0.596108 0.334795
vt 0.347047 0.836880
vt 0.325845 0.868623
vt 0.306132 0.847070
vt 0.340486 0.819047
vt 0.378789 0.813952
vt 0.392945 0.824142
vt 0.253094 0.824142
vt 0.230875 0.873718
vt 0.283511 0.821594
vt 0.438648 0.855885
vt 0.260891 0.834332
vt 0.351474 0.813952
vt 0.925922 0.877833
vt -0.261905 0.340099
vt 0.928897 0.966966
vt -0.242839 0.393599
vt 0.380590 0.911121
vt 0.181964 0.890741
vt 0.439338 0.985169
vt 0.466560 0.897828
vt 0.933865 0.792931
vt 0.129616 0.201149
vt 0.594910 0.799016
vn 0.000000 -0.000000 1.000000
vn 0.000000 1.000000 0.000000
vn 0.000000 0.000000 -1.000000
vn 0.000000 -1.000000 0.000000
vn 1.000000 0.000000 0.000000
vn -1.000000 0.000000 0.000000
vn -0.000097 0.786600 0.617463
vn -0.000116 0.353707 -0.935356
vn -0.000116 0.353705 -0.935357
usemtl initialShadingGroup
s off
f 43/85/58 44/86/58 46/87/58
f 46/88/59 45/89/59 48/90/59
f 48/91/60 47/92/60 50/93/60
f 44/94/61 43/95/61 49/96/61
f 44/97/62 49/98/62 45/99/62
f 50/100/63 43/101/63 48/102/63
f 51/103/58 52/104/58 54/105/58
f 54/106/59 53/107/59 56/108/59
f 56/109/60 55/110/60 58/111/60
f 58/112/61 57/113/61 51/114/61
f 52/115/62 57/116/62 53/117/62
f 58/118/63 51/119/63 56/120/63
f 59/121/58 60/122/58 62/123/58
f 62/124/59 61/125/59 64/126/59
f 64/127/60 63/128/60 66/129/60
f 66/130/61 65/131/61 59/132/61
f 60/133/62 65/134/62 61/135/62
f 66/136/63 59/137/63 64/138/63
f 67/139/64 68/140/64 70/141/64
f 71/142/65 72/143/65 74/144/65
f 75/145/58 76/146/58 78/147/58
f 79/148/60 80/149/60 82/150/60
f 82/150/61 81/151/61 75/152/61
f 76/153/62 81/151/62 77/154/62
f 82/150/63 75/155/63 79/148/63
f 44/86/58 45/156/58 46/87/58
f 45/89/59 47/157/59 48/90/59
f 47/92/60 49/158/60 50/93/60
f 43/95/61 50/159/61 49/96/61
f 49/98/62 47/160/62 45/99/62
f 43/101/63 46/161/63 48/102/63
f 52/104/58 53/162/58 54/105/58
f 53/107/59 55/163/59 56/108/59
f 55/110/60 57/164/60 58/111/60
f 57/113/61 52/165/61 51/114/61
f 57/116/62 55/166/62 53/117/62
f 51/119/63 54/167/63 56/120/63
f 60/122/58 61/168/58 62/123/58
f 61/125/59 63/169/59 64/126/59
f 63/128/60 65/170/60 66/129/60
f 65/131/61 60/171/61 59/132/61
f 65/134/62 63/172/62 61/135/62
f 59/137/63 62/173/63 64/138/63
f 68/140/64 69/174/64 70/141/64
f 72/143/66 73/175/66 74/144/66
f 76/146/58 77/176/58 78/147/58
f 80/149/60 81/151/60 82/150/60
f 81/151/61 76/177/61 75/152/61
f 81/151/62 80/149/62 77/154/62
f 75/155/63 78/178/63 79/148/63
o Cube
v 1.000000 -1.000000 -1.000000
v 1.000000 -1.000000 1.000000
v -1.000000 -1.000000 1.000000
v -1.000000 -1.000000 -1.000000
v 1.000000 1.000000 -0.999999
v 0.999999 1.000000 1.000001
v -1.000000 1.000000 1.000000
v -1.000000 1.000000 -1.000000
vn 0.000000 -1.000000 0.000000
vn 0.000000 1.000000 0.000000
vn 1.000000 -0.000000 0.000000
vn 0.000000 -0.000000 1.000000
vn -1.000000 -0.000000 -0.000000
vn 0.000000 0.000000 -1.000000
vn 1.000000 0.000000 0.000001
usemtl Material
s off
f 83//67 84//67 86//67
f 87//68 90//68 88//68
f 83//69 87//69 84//69
f 84//70 88//70 85//70
f 85//71 89//71 86//71
f 87//72 83//72 90//72
f 84//67 85//67 86//67
f 90//68 89//68 88//68
f 87//73 88//73 84//73
f 88//70 89//70 85//70
f 89//71 90//71 86//71
f 83//72 86//72 90//72
