# Blender v2.69 (sub 0) OBJ File: ''
# www.blender.org
mtllib continue.mtl
o Caixa_de_Sabonete_
v -0.738925 -1.095546 1.809746
v 0.738926 -1.095546 1.809746
v 0.738926 1.095529 1.809748
v -0.738925 1.095529 1.809747
v -0.738924 -1.095544 -1.809748
v 0.738927 -1.095544 -1.809747
v -0.738924 1.095531 -1.809746
v 0.738927 1.095531 -1.809746
vt 0.000000 0.995313
vt 0.001977 1.000000
vt 0.989583 0.995313
vt 0.000000 0.000000
vt 1.000000 0.004688
vt 1.000000 0.005662
vt 0.991612 0.995885
vn -0.000000 -0.000000 1.000000
vn 0.000000 -1.000000 -0.000001
vn 0.000000 0.000001 -1.000000
vn -0.000000 1.000000 0.000001
vn 1.000000 0.000000 0.000000
vn -1.000000 0.000000 -0.000000
vn -0.000001 -0.000001 1.000000
vn 0.000001 0.000000 -1.000000
vn -0.000000 1.000000 0.000000
usemtl Caixa_de_Sabonete_
s off
f 1/1/1 2/2/1 4/3/1
f 2/2/2 1/1/2 6/4/2
f 7/5/3 8/6/3 5/4/3
f 4/3/4 3/7/4 7/5/4
f 2/2/5 6/4/5 3/7/5
f 5/4/6 1/1/6 7/5/6
f 2/2/7 3/7/7 4/3/7
f 1/1/2 5/4/2 6/4/2
f 8/6/8 6/4/8 5/4/8
f 3/7/9 8/6/9 7/5/9
f 6/4/5 8/6/5 3/7/5
f 1/1/6 4/3/6 7/5/6
