# Blender v2.69 (sub 0) OBJ File: ''
# www.blender.org
mtllib gameover.mtl
o Cube_Cube.001
v 1.971178 2.948662 -3.141409
v 2.164208 2.767028 2.621823
v -0.795932 3.053777 -3.045416
v -0.602902 2.872143 2.717816
v -1.045460 -3.338616 -3.238520
v -0.852430 -3.520250 2.524711
v 1.721649 -3.443731 -3.334513
v 1.914680 -3.625365 2.428719
v 1.998979 2.947996 -3.155964
v -0.768131 3.053111 -3.059971
v 2.192009 2.766362 2.607268
v -1.017659 -3.339282 -3.253075
v -0.575101 2.871477 2.703261
v 1.749451 -3.444397 -3.349069
v -0.824629 -3.520916 2.510156
v 1.942480 -3.626030 2.414163
vt 0.002300 0.995291
vt 0.025796 0.000291
vt 0.149612 0.843985
vt 0.163571 0.171913
vt 0.821554 0.847154
vt 0.826443 0.192663
vt 0.993569 0.994044
vt 0.997448 0.037103
vt 0.000000 1.000000
vt 0.148565 0.846639
vt 0.023658 0.000000
vt 0.822746 0.849747
vt 0.162584 0.172289
vt 0.996152 0.998563
vt 0.827635 0.193097
vt 1.000000 0.036998
vn -0.038988 -0.998784 -0.030172
vn 0.998679 -0.037937 -0.034645
vn 0.038988 0.998784 0.030172
vn -0.998679 0.037937 0.034645
vn -0.033458 0.031483 -0.998944
vn 0.033458 -0.031483 0.998944
vn -0.038987 -0.998784 -0.030172
usemtl None
s off
f 1/1/1 2/2/1 3/3/1
f 3/3/2 4/4/2 5/5/2
f 5/5/3 6/6/3 7/7/3
f 8/8/4 1/1/4 7/7/4
f 2/2/5 8/8/5 4/4/5
f 7/7/6 1/1/6 5/5/6
f 9/9/3 10/10/3 11/11/3
f 10/10/4 12/12/4 13/13/4
f 12/12/1 14/14/1 15/15/1
f 14/14/2 9/9/2 16/16/2
f 11/11/6 13/13/6 16/16/6
f 14/14/5 12/12/5 9/9/5
f 2/2/1 4/4/1 3/3/1
f 4/4/2 6/6/2 5/5/2
f 6/6/3 8/8/3 7/7/3
f 2/2/4 1/1/4 8/8/4
f 8/8/5 6/6/5 4/4/5
f 1/1/6 3/3/6 5/5/6
f 10/10/3 13/13/3 11/11/3
f 12/12/4 15/15/4 13/13/4
f 14/14/7 16/16/7 15/15/7
f 9/9/2 11/11/2 16/16/2
f 13/13/6 15/15/6 16/16/6
f 12/12/5 10/10/5 9/9/5
