# Blender v2.69 (sub 0) OBJ File: ''
# www.blender.org
mtllib enemy1.mtl
o FISHTRAP
v -0.025070 0.035544 0.006457
v -0.025070 0.017119 0.006457
v 0.023093 0.017119 0.006457
v 0.023093 0.035544 0.006457
v -0.046476 0.026331 -0.017624
v -0.049151 0.026331 -0.017624
v -0.046476 0.043359 -0.010571
v -0.049151 0.043359 -0.010571
v -0.046476 0.009303 -0.010571
v -0.049151 0.009303 -0.010571
v -0.046476 0.050413 0.006457
v -0.049151 0.050413 0.006457
v -0.046476 0.002250 0.006457
v -0.049151 0.002250 0.006457
v -0.049151 0.026331 0.030538
v -0.046476 0.026331 0.030538
v -0.046476 0.043359 0.023485
v -0.049151 0.043359 0.023485
v -0.046476 0.009303 0.023485
v -0.049151 0.009303 0.023485
v -0.025070 0.026331 -0.014012
v -0.025070 0.040805 -0.008017
v -0.025070 0.011857 -0.008017
v -0.025070 0.046800 0.006457
v -0.025070 0.026331 -0.000247
v -0.025070 0.005862 0.006457
v -0.025070 0.026331 0.013161
v -0.025070 0.026331 0.026926
v -0.025070 0.040805 0.020931
v -0.025070 0.011857 0.020931
v -0.002326 0.026331 -0.017624
v -0.002326 0.043359 -0.010571
v -0.002326 0.009303 -0.010571
v -0.002326 0.050413 0.006457
v -0.002326 0.002250 0.006457
v -0.002326 0.026331 0.030538
v -0.002326 0.043359 0.023485
v -0.002326 0.009303 0.023485
v 0.000349 0.026331 -0.017624
v 0.000349 0.043359 -0.010571
v 0.000349 0.009303 -0.010571
v 0.000349 0.050413 0.006457
v 0.000349 0.002250 0.006457
v 0.000349 0.026331 0.030538
v 0.000349 0.043359 0.023485
v 0.000349 0.009303 0.023485
v 0.023093 0.026331 -0.014012
v 0.023093 0.040805 -0.008017
v 0.023093 0.011857 -0.008017
v 0.023093 0.026331 -0.000247
v 0.023093 0.046800 0.006457
v 0.023093 0.005862 0.006457
v 0.023093 0.026331 0.013161
v 0.023093 0.026331 0.026926
v 0.023093 0.040805 0.020931
v 0.023093 0.011857 0.020931
v 0.044499 0.026331 -0.017624
v 0.047174 0.026331 -0.017624
v 0.047174 0.043359 -0.010571
v 0.044499 0.043359 -0.010571
v 0.044499 0.009303 -0.010571
v 0.047174 0.009303 -0.010571
v 0.047174 0.050413 0.006457
v 0.044499 0.050413 0.006457
v 0.044499 0.002250 0.006457
v 0.047174 0.002250 0.006457
v 0.047174 0.026331 0.030538
v 0.044499 0.026331 0.030538
v 0.047174 0.043359 0.023485
v 0.044499 0.043359 0.023485
v 0.044499 0.009303 0.023485
v 0.047174 0.009303 0.023485
vt 0.750000 0.003889
vt 0.500000 0.003889
vt 0.750000 0.031667
vt 0.500000 0.031667
vt 0.950000 0.003889
vt 0.950000 0.031667
vt 0.250000 0.031667
vt 0.250000 0.003889
vt 0.050000 0.031667
vt 0.050000 0.003889
vt 0.050000 0.500000
vt 0.950000 0.500000
vt 0.560000 0.290000
vt 0.750000 0.500000
vt 0.500000 0.500000
vt 0.250000 0.500000
vt 0.500000 0.966111
vt 0.750000 0.966111
vt 0.950000 0.966111
vt 0.250000 0.966111
vt 0.050000 0.966111
vt 0.750000 0.993889
vt 0.500000 0.993889
vt 0.950000 0.993889
vt 0.250000 0.993889
vt 0.050000 0.993889
vt 0.500000 0.000000
vt 0.750000 0.000000
vt 0.750000 0.027778
vt 0.500000 0.027778
vt 0.950000 0.000000
vt 0.950000 0.027778
vt 0.250000 0.000000
vt 0.250000 0.027778
vt 0.050000 0.000000
vt 0.050000 0.027778
vn 0.000000 -0.382684 0.923879
vn 0.000000 -0.382683 0.923880
vn 0.000000 -0.923879 0.382683
vn 0.000000 -0.923880 0.382683
vn 0.000000 -0.923879 -0.382683
vn 0.000000 -0.382684 -0.923879
vn 0.000000 0.382684 -0.923879
vn 0.000000 0.923879 -0.382683
vn 0.000000 0.923879 0.382683
vn 0.000000 0.923880 0.382683
vn 0.000000 0.382684 0.923879
vn 0.000000 0.382683 0.923880
vn 1.000000 0.000000 0.000000
vn 0.503945 0.508243 -0.698376
vn 0.613795 0.302115 -0.729371
vn 0.613795 -0.302115 -0.729371
vn 0.503945 -0.508243 -0.698376
vn 0.495494 -0.802492 -0.332403
vn 0.495494 -0.802492 0.332403
vn 0.613795 -0.302116 0.729371
vn 0.503945 -0.508243 0.698376
vn 0.613795 0.302116 0.729371
vn 0.503945 0.508243 0.698376
vn 0.495494 0.802492 0.332403
vn 0.495494 0.802492 -0.332403
vn -0.154044 -0.378116 0.912852
vn -0.154044 -0.912852 0.378116
vn -0.154044 -0.912852 -0.378116
vn -0.154044 -0.378116 -0.912852
vn -0.154044 0.378116 -0.912852
vn -0.154044 0.912852 -0.378116
vn -0.154044 0.912852 0.378116
vn -0.154044 0.378116 0.912852
vn -0.145179 -0.378629 0.914091
vn -0.145179 -0.914091 0.378629
vn -0.145179 -0.914091 -0.378629
vn -0.145179 -0.378629 -0.914091
vn -0.145179 0.378629 -0.914091
vn -0.145179 0.914092 -0.378629
vn -0.145179 0.914091 -0.378629
vn -0.145179 0.914091 0.378629
vn -0.145179 0.914092 0.378629
vn -0.145179 0.378629 0.914091
vn 0.145179 -0.378629 0.914091
vn 0.145179 -0.914091 0.378629
vn 0.000000 -0.923880 -0.382683
vn 0.145179 -0.914091 -0.378629
vn 0.000000 -0.382683 -0.923880
vn 0.000000 -0.382684 -0.923880
vn 0.145179 -0.378629 -0.914091
vn 0.000000 0.382684 -0.923880
vn 0.000000 0.382683 -0.923880
vn 0.145179 0.378629 -0.914091
vn 0.000000 0.923880 -0.382683
vn 0.145179 0.914091 -0.378629
vn 0.145179 0.914092 -0.378629
vn 0.145179 0.914092 0.378629
vn 0.145179 0.914091 0.378629
vn 0.145179 0.378629 0.914091
vn -1.000000 0.000000 0.000000
vn -0.503945 0.508243 -0.698376
vn -0.613795 0.302115 -0.729371
vn -0.613795 -0.302115 -0.729371
vn -0.503945 -0.508243 -0.698376
vn -0.495494 -0.802492 -0.332403
vn -0.495494 -0.802493 0.332403
vn -0.613795 -0.302115 0.729371
vn -0.503945 -0.508243 0.698376
vn -0.613795 0.302115 0.729371
vn -0.503945 0.508243 0.698376
vn -0.495494 0.802493 0.332403
vn -0.495494 0.802492 -0.332403
vn 0.154044 -0.378116 0.912852
vn 0.154044 -0.912852 0.378116
vn 0.154044 -0.912852 -0.378116
vn 0.154044 -0.378116 -0.912852
vn 0.154044 0.378116 -0.912852
vn 0.154044 0.912852 -0.378116
vn 0.154044 0.912852 0.378116
vn 0.154044 0.378116 0.912852
usemtl FISHTRAP
s off
f 72/1/1 67/2/1 71/3/1
f 67/2/2 68/4/2 71/3/2
f 66/5/3 72/1/3 65/6/3
f 72/1/4 71/3/4 65/6/4
f 62/1/5 66/5/5 61/3/5
f 66/5/5 65/6/5 61/3/5
f 58/2/6 62/1/6 57/4/6
f 62/1/6 61/3/6 57/4/6
f 60/7/7 59/8/7 58/2/7
f 60/7/7 58/2/7 57/4/7
f 64/9/8 63/10/8 59/8/8
f 64/9/8 59/8/8 60/7/8
f 70/7/9 69/8/9 63/10/9
f 70/7/10 63/10/10 64/9/10
f 68/4/11 67/2/11 69/8/11
f 68/4/12 69/8/12 70/7/12
f 4/11/13 3/12/13 50/13/13
f 53/13/13 3/12/13 4/11/13
f 53/13/14 67/2/14 3/12/14
f 67/2/15 72/1/15 3/12/15
f 69/8/16 67/2/16 4/11/16
f 67/2/17 53/13/17 4/11/17
f 69/8/18 4/11/18 63/10/18
f 63/10/19 4/11/19 59/8/19
f 59/8/20 4/11/20 58/2/20
f 4/11/21 50/13/21 58/2/21
f 3/12/22 62/1/22 58/2/22
f 50/13/23 3/12/23 58/2/23
f 3/12/24 66/5/24 62/1/24
f 3/12/25 72/1/25 66/5/25
f 71/3/26 68/4/26 56/14/26
f 68/4/26 54/15/26 56/14/26
f 65/6/27 56/14/27 52/12/27
f 71/3/27 56/14/27 65/6/27
f 65/6/28 49/14/28 61/3/28
f 65/6/28 52/12/28 49/14/28
f 49/14/29 47/15/29 57/4/29
f 61/3/29 49/14/29 57/4/29
f 48/16/30 60/7/30 57/4/30
f 47/15/30 48/16/30 57/4/30
f 51/11/31 64/9/31 48/16/31
f 48/16/31 64/9/31 60/7/31
f 55/16/32 70/7/32 64/9/32
f 55/16/32 64/9/32 51/11/32
f 54/15/33 68/4/33 55/16/33
f 68/4/33 70/7/33 55/16/33
f 36/17/34 28/15/34 30/14/34
f 38/18/34 36/17/34 30/14/34
f 38/18/35 30/14/35 35/19/35
f 35/19/35 30/14/35 26/12/35
f 35/19/36 26/12/36 23/14/36
f 35/19/36 23/14/36 33/18/36
f 33/18/37 23/14/37 31/17/37
f 23/14/37 21/15/37 31/17/37
f 21/15/38 22/16/38 31/17/38
f 22/16/38 32/20/38 31/17/38
f 22/16/39 34/21/39 32/20/39
f 24/11/40 34/21/40 22/16/40
f 29/16/41 34/21/41 24/11/41
f 29/16/42 37/20/42 34/21/42
f 36/17/43 37/20/43 29/16/43
f 28/15/43 36/17/43 29/16/43
f 46/22/2 36/17/2 38/18/2
f 44/23/2 36/17/2 46/22/2
f 44/23/44 46/22/44 56/14/44
f 54/15/44 44/23/44 56/14/44
f 43/24/4 38/18/4 35/19/4
f 46/22/4 38/18/4 43/24/4
f 52/12/45 56/14/45 43/24/45
f 56/14/45 46/22/45 43/24/45
f 41/22/46 35/19/46 33/18/46
f 43/24/46 35/19/46 41/22/46
f 49/14/47 43/24/47 41/22/47
f 52/12/47 43/24/47 49/14/47
f 39/23/48 33/18/48 31/17/48
f 41/22/49 33/18/49 39/23/49
f 47/15/50 49/14/50 39/23/50
f 49/14/50 41/22/50 39/23/50
f 32/20/51 39/23/51 31/17/51
f 32/20/52 40/25/52 39/23/52
f 40/25/53 48/16/53 39/23/53
f 48/16/53 47/15/53 39/23/53
f 34/21/54 40/25/54 32/20/54
f 34/21/54 42/26/54 40/25/54
f 42/26/55 51/11/55 48/16/55
f 42/26/56 48/16/56 40/25/56
f 37/20/10 42/26/10 34/21/10
f 37/20/10 45/25/10 42/26/10
f 45/25/57 55/16/57 42/26/57
f 55/16/58 51/11/58 42/26/58
f 36/17/12 45/25/12 37/20/12
f 36/17/12 44/23/12 45/25/12
f 44/23/59 54/15/59 55/16/59
f 45/25/59 44/23/59 55/16/59
f 15/27/2 20/28/2 19/29/2
f 16/30/1 15/27/1 19/29/1
f 20/28/3 14/31/3 13/32/3
f 19/29/3 20/28/3 13/32/3
f 14/31/5 10/28/5 9/29/5
f 13/32/5 14/31/5 9/29/5
f 10/28/48 6/27/48 5/30/48
f 9/29/6 10/28/6 5/30/6
f 8/33/52 7/34/52 6/27/52
f 6/27/7 7/34/7 5/30/7
f 12/35/8 11/36/8 8/33/8
f 8/33/8 11/36/8 7/34/8
f 18/33/9 17/34/9 12/35/9
f 12/35/9 17/34/9 11/36/9
f 15/27/12 16/30/12 18/33/12
f 18/33/11 16/30/11 17/34/11
f 2/12/60 1/11/60 25/13/60
f 1/11/60 2/12/60 27/13/60
f 15/27/61 27/13/61 2/12/61
f 20/28/62 15/27/62 2/12/62
f 1/11/63 15/27/63 18/33/63
f 1/11/64 27/13/64 15/27/64
f 1/11/65 18/33/65 12/35/65
f 1/11/66 12/35/66 8/33/66
f 1/11/67 8/33/67 6/27/67
f 25/13/68 1/11/68 6/27/68
f 10/28/69 2/12/69 6/27/69
f 2/12/70 25/13/70 6/27/70
f 14/31/71 2/12/71 10/28/71
f 20/28/72 2/12/72 14/31/72
f 16/30/73 19/29/73 30/14/73
f 28/15/73 16/30/73 30/14/73
f 30/14/74 13/32/74 26/12/74
f 30/14/74 19/29/74 13/32/74
f 23/14/75 13/32/75 9/29/75
f 26/12/75 13/32/75 23/14/75
f 21/15/76 23/14/76 5/30/76
f 23/14/76 9/29/76 5/30/76
f 7/34/77 22/16/77 5/30/77
f 22/16/77 21/15/77 5/30/77
f 11/36/78 24/11/78 22/16/78
f 11/36/78 22/16/78 7/34/78
f 17/34/79 29/16/79 11/36/79
f 11/36/79 29/16/79 24/11/79
f 16/30/80 28/15/80 29/16/80
f 17/34/80 16/30/80 29/16/80
