# Blender v2.69 (sub 0) OBJ File: ''
# www.blender.org
mtllib seven.mtl
o Text.007
v 0.004900 0.058900 0.002000
v 0.049000 0.068200 0.002000
v 0.004900 0.068200 0.002000
v 0.034400 0.058900 0.002000
v 0.018100 -0.000900 0.002000
v 0.009400 0.002900 0.002000
v 0.049000 0.068200 -0.002000
v 0.004900 0.058900 -0.002000
v 0.004900 0.068200 -0.002000
v 0.034400 0.058900 -0.002000
v 0.018100 -0.000900 -0.002000
v 0.009400 0.002900 -0.002000
v 0.006752 0.001874 0.000000
v 0.031317 0.056900 0.000000
v 0.034400 0.058900 -0.002000
v 0.002900 0.056900 0.000000
v 0.002900 0.070200 0.000000
v 0.004900 0.058900 -0.002000
v 0.052085 0.070200 0.000000
v 0.004900 0.068200 -0.002000
v 0.019116 -0.003526 -0.000000
v 0.018100 -0.000900 -0.002000
v 0.009400 0.002900 0.002000
v 0.034400 0.058900 0.002000
v 0.006752 0.001874 0.000000
v 0.004900 0.058900 0.002000
v 0.002900 0.056900 0.000000
v 0.004900 0.068200 0.002000
v 0.049000 0.068200 0.002000
v 0.052085 0.070200 0.000000
v 0.018100 -0.000900 0.002000
v 0.009400 0.002900 -0.002000
v 0.049000 0.068200 -0.002000
v 0.031317 0.056900 0.000000
v 0.002900 0.070200 0.000000
v 0.019116 -0.003526 -0.000000
vt 0.400000 0.000000
vt 0.800000 0.000000
vt 0.600000 0.000000
vt 0.200000 0.000000
vt 1.000000 0.000000
vt 0.000000 0.000000
vt 0.000000 1.000000
vt 0.200000 1.000000
vt 0.400000 1.000000
vt 0.600000 1.000000
vt 0.800000 1.000000
vt 1.000000 1.000000
vn 0.000000 -0.000000 1.000000
vn 0.000000 0.000000 -1.000000
vn -0.536915 -0.207975 -0.817599
vn -0.401029 -0.260144 -0.878351
vn -0.401028 -0.260145 -0.878351
vn -0.408248 -0.408248 -0.816497
vn -0.408248 0.408247 -0.816497
vn -0.408248 -0.408248 -0.816496
vn 0.400960 0.259927 -0.878447
vn 0.208973 -0.539991 -0.815316
vn 0.208972 -0.539991 -0.815316
vn -0.536916 -0.207972 0.817599
vn -0.401028 -0.260145 0.878351
vn -0.536916 -0.207975 0.817599
vn -0.408248 -0.408249 0.816496
vn -0.408248 0.408247 0.816497
vn 0.400963 0.259922 0.878447
vn 0.400960 0.259926 0.878447
vn 0.208972 -0.539991 0.815316
vn -0.536916 -0.207972 -0.817599
vn 0.400963 0.259922 -0.878447
vn -0.401029 -0.260144 0.878351
vn 0.208973 -0.539991 0.815316
usemtl Material.008
s off
f 1/1/1 2/2/1 3/3/1
f 1/1/1 4/4/1 2/2/1
f 4/4/1 5/5/1 2/2/1
f 6/6/1 5/5/1 4/4/1
f 7/2/2 8/1/2 9/3/2
f 10/4/2 8/1/2 7/2/2
f 11/5/2 10/4/2 7/2/2
f 11/5/2 12/6/2 10/4/2
s 1
f 13/7/3 14/8/4 15/4/5
f 14/8/4 16/9/6 15/4/5
f 16/9/6 17/10/7 18/1/8
f 17/10/7 19/11/9 20/3/7
f 19/11/9 21/12/10 22/5/11
f 21/12/10 13/7/3 22/5/11
f 23/7/12 24/8/13 25/6/14
f 24/8/13 26/9/15 27/1/15
f 26/9/15 28/10/16 27/1/15
f 28/10/16 29/11/17 30/2/18
f 29/11/17 31/12/19 30/2/18
f 31/12/19 23/7/12 25/6/14
f 32/6/20 13/7/3 15/4/5
f 16/9/6 18/1/8 15/4/5
f 17/10/7 20/3/7 18/1/8
f 19/11/9 33/2/21 20/3/7
f 33/2/21 19/11/9 22/5/11
f 13/7/3 32/6/20 22/5/11
f 24/8/13 34/4/22 25/6/14
f 34/4/22 24/8/13 27/1/15
f 28/10/16 35/3/16 27/1/15
f 35/3/16 28/10/16 30/2/18
f 31/12/19 36/5/23 30/2/18
f 36/5/23 31/12/19 25/6/14
